REM DIRINDEX 1\2,1\3,1\4,1\5\6,1\5\7,1\8
REM DIRNAME folder01,folder02,folder03,folder04,folder05,folder06,folder07,folder08
TITLE ""
FILE "027 【027】Unit2 (0301 axis_0312 inject).mp3" MP3
  TRACK 01 AUDIO
    TITLE "0:"
    INDEX 01 00:00:00
  TRACK 02 AUDIO
    TITLE "2:cjc115_1018"
    INDEX 01 00:00:07
  TRACK 03 AUDIO
    TITLE "0:"
    INDEX 01 00:01:26
  TRACK 04 AUDIO
    TITLE "3:cjc115_1019"
    INDEX 01 00:01:34
  TRACK 05 AUDIO
    TITLE "0:"
    INDEX 01 00:02:34
  TRACK 06 AUDIO
    TITLE "4:cjc115_1020"
    INDEX 01 00:02:42
  TRACK 07 AUDIO
    TITLE "0:"
    INDEX 01 00:07:64
  TRACK 08 AUDIO
    TITLE "2:cjc115_1021"
    INDEX 01 00:09:00
  TRACK 09 AUDIO
    TITLE "0:"
    INDEX 01 00:10:25
  TRACK 10 AUDIO
    TITLE "3:cjc115_1022"
    INDEX 01 00:10:33
  TRACK 11 AUDIO
    TITLE "0:"
    INDEX 01 00:12:60
  TRACK 12 AUDIO
    TITLE "4:cjc115_1023"
    INDEX 01 00:12:67
  TRACK 13 AUDIO
    TITLE "0:"
    INDEX 01 00:16:28
  TRACK 14 AUDIO
    TITLE "2:cjc115_1024"
    INDEX 01 00:17:31
  TRACK 15 AUDIO
    TITLE "0:"
    INDEX 01 00:18:52
  TRACK 16 AUDIO
    TITLE "3:cjc115_1025"
    INDEX 01 00:18:62
  TRACK 17 AUDIO
    TITLE "0:"
    INDEX 01 00:21:13
  TRACK 18 AUDIO
    TITLE "4:cjc115_1026"
    INDEX 01 00:21:19
  TRACK 19 AUDIO
    TITLE "0:"
    INDEX 01 00:24:35
  TRACK 20 AUDIO
    TITLE "2:cjc115_1027"
    INDEX 01 00:25:45
  TRACK 21 AUDIO
    TITLE "0:"
    INDEX 01 00:26:62
  TRACK 22 AUDIO
    TITLE "3:cjc115_1028"
    INDEX 01 00:26:73
  TRACK 23 AUDIO
    TITLE "0:"
    INDEX 01 00:29:23
  TRACK 24 AUDIO
    TITLE "4:cjc115_1029"
    INDEX 01 00:29:33
  TRACK 25 AUDIO
    TITLE "0:"
    INDEX 01 00:33:21
  TRACK 26 AUDIO
    TITLE "2:cjc115_1030"
    INDEX 01 00:34:38
  TRACK 27 AUDIO
    TITLE "0:"
    INDEX 01 00:35:63
  TRACK 28 AUDIO
    TITLE "3:cjc115_1031"
    INDEX 01 00:35:68
  TRACK 29 AUDIO
    TITLE "0:"
    INDEX 01 00:37:16
  TRACK 30 AUDIO
    TITLE "4:cjc115_1032"
    INDEX 01 00:37:28
  TRACK 31 AUDIO
    TITLE "0:"
    INDEX 01 00:40:73
  TRACK 32 AUDIO
    TITLE "2:cjc115_1033"
    INDEX 01 00:42:06
  TRACK 33 AUDIO
    TITLE "0:"
    INDEX 01 00:43:13
  TRACK 34 AUDIO
    TITLE "3:cjc115_1034"
    INDEX 01 00:43:23
  TRACK 35 AUDIO
    TITLE "0:"
    INDEX 01 00:46:53
  TRACK 36 AUDIO
    TITLE "4:cjc115_1035"
    INDEX 01 00:46:60
  TRACK 37 AUDIO
    TITLE "0:"
    INDEX 01 00:49:53
  TRACK 38 AUDIO
    TITLE "2:cjc115_1036"
    INDEX 01 00:50:62
  TRACK 39 AUDIO
    TITLE "0:"
    INDEX 01 00:52:22
  TRACK 40 AUDIO
    TITLE "3:cjc115_1037"
    INDEX 01 00:52:30
  TRACK 41 AUDIO
    TITLE "0:"
    INDEX 01 00:53:57
  TRACK 42 AUDIO
    TITLE "4:cjc115_1038"
    INDEX 01 00:53:64
  TRACK 43 AUDIO
    TITLE "0:"
    INDEX 01 00:57:64
  TRACK 44 AUDIO
    TITLE "2:cjc115_1039"
    INDEX 01 00:59:00
  TRACK 45 AUDIO
    TITLE "0:"
    INDEX 01 01:00:37
  TRACK 46 AUDIO
    TITLE "3:cjc115_1040"
    INDEX 01 01:00:47
  TRACK 47 AUDIO
    TITLE "0:"
    INDEX 01 01:01:58
  TRACK 48 AUDIO
    TITLE "4:cjc115_1041"
    INDEX 01 01:01:68
  TRACK 49 AUDIO
    TITLE "0:"
    INDEX 01 01:07:63
  TRACK 50 AUDIO
    TITLE "2:cjc115_1042"
    INDEX 01 01:08:70
  TRACK 51 AUDIO
    TITLE "0:"
    INDEX 01 01:10:26
  TRACK 52 AUDIO
    TITLE "3:cjc115_1043"
    INDEX 01 01:10:31
  TRACK 53 AUDIO
    TITLE "0:"
    INDEX 01 01:12:58
  TRACK 54 AUDIO
    TITLE "4:cjc115_1044"
    INDEX 01 01:12:68
  TRACK 55 AUDIO
    TITLE "0:"
    INDEX 01 01:17:33
  TRACK 56 AUDIO
    TITLE "2:cjc115_1045"
    INDEX 01 01:18:41
  TRACK 57 AUDIO
    TITLE "0:"
    INDEX 01 01:19:58
  TRACK 58 AUDIO
    TITLE "3:cjc115_1046"
    INDEX 01 01:19:66
  TRACK 59 AUDIO
    TITLE "0:"
    INDEX 01 01:21:14
  TRACK 60 AUDIO
    TITLE "4:cjc115_1047"
    INDEX 01 01:21:21
  TRACK 61 AUDIO
    TITLE "0:"
    INDEX 01 01:24:04
  TRACK 62 AUDIO
    TITLE "2:cjc115_1048"
    INDEX 01 01:25:13
  TRACK 63 AUDIO
    TITLE "0:"
    INDEX 01 01:26:34
  TRACK 64 AUDIO
    TITLE "3:cjc115_1049"
    INDEX 01 01:26:46
  TRACK 65 AUDIO
    TITLE "0:"
    INDEX 01 01:27:51
  TRACK 66 AUDIO
    TITLE "4:cjc115_1050"
    INDEX 01 01:27:59
  TRACK 67 AUDIO
    TITLE "0:"
    INDEX 01 01:31:20
  TRACK 68 AUDIO
    TITLE "2:cjc115_1051"
    INDEX 01 01:32:31
  TRACK 69 AUDIO
    TITLE "0:"
    INDEX 01 01:33:44
  TRACK 70 AUDIO
    TITLE "3:cjc115_1052"
    INDEX 01 01:33:52
  TRACK 71 AUDIO
    TITLE "0:"
    INDEX 01 01:36:35
  TRACK 72 AUDIO
    TITLE "4:cjc115_1053"
    INDEX 01 01:36:41
  TRACK 73 AUDIO
    TITLE "0:"
    INDEX 01 01:40:11
